<svg width="305" height="261" viewBox="0 0 305 261" fill="none" xmlns="http://www.w3.org/2000/svg">
<path d="M36.2985 248.764L27.3485 239.664L17.0985 249.334L27.3485 259.014L36.4485 250.054L45.8285 259.014L55.4985 249.484L45.8285 239.664L36.2985 248.764Z" fill="white"/>
<path d="M115.759 193.454C116.929 195.534 117.569 211.874 117.569 211.874L103.819 211.714V211.614H81.3185C81.4985 210.984 81.6485 210.324 81.7685 209.634L76.2785 195.924C67.6185 211.374 50.7285 200.394 50.7285 200.394C50.7285 200.394 36.2885 197.944 31.8185 212.084C31.5285 213.384 31.3885 213.524 31.3885 214.104C31.0985 215.254 32.9785 216.994 35.4285 218.004C37.4485 218.874 39.6185 219.734 40.0485 219.734L25.3285 220.314C19.4085 220.024 26.0485 214.824 31.0985 209.634L11.4685 200.394C11.4685 200.394 1.64848 215.404 1.07848 220.314C0.78848 222.914 -0.941507 238.934 20.2785 238.934C41.4985 238.934 50.1585 239.654 50.1585 239.654C50.1585 239.654 68.9285 239.944 68.9285 229.694C68.9285 219.444 57.9585 224.064 49.0085 218.574C49.0085 218.574 68.9585 226.434 77.8885 217.664V231.064H103.838C113.828 232.234 131.468 229.894 131.468 229.894C134.968 215.884 132.249 189.024 132.249 189.024L115.768 193.434L115.759 193.454Z" fill="white"/>
<path d="M121.989 180.874L130.289 189.174L139.759 179.704L129.638 169.454L122.249 178.144L114.719 170.624L105.509 180.484L114.458 189.174L121.989 180.874Z" fill="white"/>
<path d="M216.948 175.424L202.029 157.784C189.449 187.754 165.049 191.384 165.049 191.384C165.049 191.384 157.139 201.374 166.999 208.764C167.129 208.894 168.949 209.024 170.239 209.284C203.969 210.714 201.638 222.774 201.638 222.774C199.438 210.704 171.018 210.704 170.888 210.704L158.749 211.344L158.299 192.404L161.539 191.624L157.909 176.054L139.489 183.064L141.828 231.064H158.948C158.948 231.064 185.549 231.974 203.969 231.194C211.109 230.934 213.179 224.704 213.179 224.704C213.179 224.704 215.769 208.354 205.009 200.314C202.929 198.624 189.829 197.204 185.159 197.464C200.989 195.774 216.948 175.404 216.948 175.404" fill="white"/>
<path d="M280.519 242.364L290.769 252.874L300.759 243.014L291.678 231.724L280.519 242.364Z" fill="white"/>
<path d="M303.609 188.914L286.999 193.454C288.299 195.524 288.809 211.744 288.809 211.744H276.119L275.319 175.544L257.289 180.604L258.979 211.614H254.379C253.589 202.084 250.189 184.604 231.739 192.154C215.649 198.774 216.949 220.824 223.309 227.184C223.959 227.834 229.149 230.044 237.709 231.074C234.469 235.874 229.279 237.694 229.279 237.694L227.459 257.544C253.409 251.054 255.359 231.204 255.359 231.204C255.359 231.204 255.359 231.114 255.349 230.964C258.609 230.694 263.499 230.294 266.899 230.294C269.789 230.294 271.848 229.164 273.298 227.774L275.069 231.074C285.059 232.374 302.699 229.774 302.699 229.774C306.199 215.894 303.609 188.904 303.609 188.904M236.668 211.994C235.498 212.254 234.589 210.954 234.459 209.534C234.329 208.104 234.979 205.904 236.279 205.774C237.449 205.644 238.479 207.464 238.609 208.884L238.739 211.994C238.739 211.994 237.309 211.864 236.659 211.994" fill="white"/>
<path d="M131.478 245.554C130.598 245.294 129.719 245.174 128.859 245.174C128.089 245.174 127.339 245.274 126.609 245.474C124.309 246.114 122.678 247.544 121.768 249.714C120.998 251.554 120.918 253.494 121.528 255.504C122.278 257.964 123.918 259.574 126.408 260.274C127.758 260.654 129.159 260.694 130.569 260.394C131.969 260.094 133.089 259.484 133.999 258.504C134.039 258.464 134.079 258.414 134.119 258.364L131.698 256.264C131.698 256.264 131.649 256.314 131.619 256.334C130.919 256.964 130.059 257.284 128.989 257.314C128.939 257.314 128.899 257.314 128.859 257.314C127.249 257.314 125.858 256.354 125.288 254.854C124.948 253.954 124.858 252.974 125.018 251.944C125.158 251.074 125.488 250.324 126.028 249.704C126.668 248.964 127.598 248.514 128.648 248.454C129.738 248.384 130.838 248.744 131.588 249.414C131.648 249.464 131.699 249.514 131.759 249.564L134.268 247.384C133.608 246.574 132.539 245.854 131.489 245.554" fill="white"/>
<path d="M114.498 245.904C113.408 245.434 112.278 245.204 111.118 245.204C110.438 245.204 109.758 245.284 109.058 245.444C106.848 245.954 105.198 247.204 104.158 249.164C103.188 250.984 102.988 253.004 103.548 255.174C103.998 256.904 104.948 258.274 106.388 259.254C107.468 259.984 108.698 260.404 110.148 260.524C111.958 260.674 113.488 260.374 114.848 259.614C117.948 257.874 118.688 255.234 118.748 253.324C118.748 251.844 118.588 250.844 118.218 249.884C117.508 248.014 116.248 246.684 114.478 245.914M114.158 255.744C113.428 256.774 112.358 257.294 110.998 257.294C110.978 257.294 110.948 257.294 110.918 257.294C108.898 257.264 107.428 256.004 107.098 253.994C106.918 252.914 106.989 251.944 107.319 251.044C107.909 249.414 109.298 248.464 111.028 248.504C113.028 248.544 114.498 249.794 114.848 251.754C114.898 252.014 114.928 252.264 114.948 252.514C114.958 252.624 114.978 252.734 114.988 252.844C114.988 252.864 114.988 252.884 114.988 252.904C114.958 254.084 114.688 254.984 114.148 255.744" fill="white"/>
<path d="M90.1485 255.524C90.0585 254.474 89.6485 253.664 88.8885 253.064C88.7285 252.934 88.5385 252.814 88.3485 252.694C88.2585 252.634 88.1585 252.574 88.0585 252.504C87.9585 252.434 87.8985 252.334 87.8885 252.214C87.8885 252.094 87.9285 251.984 88.0085 251.894L88.0585 251.844C88.0585 251.844 88.1285 251.774 88.1685 251.744C88.8985 251.094 89.2585 250.314 89.2585 249.384C89.2585 247.934 88.6685 246.914 87.4385 246.254C86.6585 245.834 85.7485 245.614 84.7485 245.604C83.3485 245.584 81.9285 245.584 80.5585 245.574C79.8785 245.574 79.1785 245.574 78.4785 245.574V248.044H82.4485C82.4485 248.044 82.5185 248.044 82.5485 248.044C82.6585 248.044 82.7785 248.044 82.8885 248.044C82.9685 248.044 83.0485 248.044 83.1285 248.044C83.5585 248.044 84.0085 248.044 84.4485 248.104C85.0685 248.184 85.5585 248.504 85.8385 248.994C86.1185 249.494 86.1385 250.124 85.8785 250.724C85.7085 251.124 85.3085 251.624 84.4285 251.684C84.2085 251.704 83.9885 251.694 83.7785 251.684C83.7185 251.684 83.6685 251.684 83.6085 251.684C83.5785 251.684 83.5385 251.694 83.5085 251.694H83.2485C83.0385 251.694 82.8285 251.694 82.6285 251.694H82.5985C82.5085 251.694 82.3285 251.684 82.1985 251.544C82.0885 251.444 82.0385 251.294 82.0385 251.124C82.0385 250.544 82.0385 249.964 82.0385 249.394H78.4885V252.984C78.4885 255.364 78.4885 257.754 78.4885 260.134H78.7585C79.2485 260.134 79.7385 260.134 80.2285 260.134C81.9285 260.134 83.6785 260.134 85.3985 260.124C86.2985 260.124 87.1585 259.914 87.9485 259.514C88.8785 259.054 89.4985 258.404 89.8585 257.544C90.1085 256.934 90.1985 256.274 90.1385 255.514M86.8085 255.924C86.7685 256.494 86.5885 256.944 86.2585 257.244C85.9285 257.554 85.4685 257.714 84.8585 257.734C84.5385 257.744 84.2185 257.754 83.8985 257.754C83.7085 257.754 83.5285 257.754 83.3385 257.754H80.2285L82.0285 256.384C82.0285 255.814 82.0285 255.234 82.0285 254.674V254.304C82.0285 254.184 82.0785 254.114 82.0985 254.084C82.1685 253.964 82.2985 253.884 82.4385 253.884H83.0585C83.6585 253.884 84.2885 253.884 84.8985 253.884C85.0785 253.884 85.2485 253.934 85.3985 253.964C86.3385 254.214 86.8585 254.944 86.7985 255.914" fill="white"/>
<path d="M156.808 255.074C156.808 255.024 156.808 254.964 156.818 254.904L158.648 248.764C158.698 248.594 158.848 248.484 159.018 248.484H162.458C162.128 247.534 161.778 246.544 161.428 245.554C159.878 245.554 158.338 245.554 156.848 245.554C156.618 246.254 156.378 246.954 156.138 247.644C156.058 247.884 155.978 248.124 155.898 248.364L153.508 255.384C153.048 256.734 152.588 258.084 152.128 259.424C152.048 259.664 151.968 259.894 151.888 260.134H153.158C153.888 260.134 154.628 260.134 155.368 260.134L156.798 255.064L156.808 255.074Z" fill="white"/>
<path d="M166.239 259.214C165.939 258.364 165.639 257.504 165.339 256.654C164.899 255.394 164.449 254.144 164.009 252.884C163.689 251.984 163.339 250.964 162.949 249.874H159.789L161.209 254.414L162.729 255.414H157.949L157.319 257.944C158.779 257.944 160.159 257.944 161.519 257.944C161.869 257.944 162.109 258.114 162.209 258.464C162.289 258.754 162.389 259.044 162.479 259.334C162.569 259.604 162.649 259.884 162.739 260.154C163.799 260.154 164.879 260.154 165.919 260.154H166.559C166.449 259.844 166.339 259.534 166.239 259.224" fill="white"/>
<path d="M201.029 257.314H199.909C198.319 257.314 196.679 257.314 195.059 257.314C194.979 257.314 194.759 257.314 194.599 257.154C194.439 256.994 194.439 256.764 194.439 256.694C194.439 256.214 194.449 255.724 194.439 255.224L192.689 254.144H194.979C194.979 254.144 195.029 254.144 195.049 254.144C196.429 254.144 197.838 254.144 199.198 254.144H200.219V251.454H194.839C194.629 251.454 194.448 251.284 194.448 251.064V249.824H190.859V260.104H201.009V257.314H201.029Z" fill="white"/>
<path d="M194.778 248.454C194.778 248.454 194.828 248.454 194.858 248.454H196.408C197.878 248.454 199.408 248.454 200.908 248.454C200.908 247.724 200.908 246.984 200.908 246.264C200.908 246.054 200.908 245.854 200.908 245.654H190.888V248.454H194.788H194.778Z" fill="white"/>
<path d="M101.969 257.784V257.014H100.719C99.6985 257.014 98.6685 257.014 97.6485 257.014H96.5585C96.5385 257.014 96.5285 257.014 96.5085 257.014C96.4685 257.014 96.4285 257.014 96.3785 257.014H94.1885L95.9185 255.894V254.964C95.9185 251.914 95.9185 248.754 95.9185 245.644C94.9885 245.644 94.0485 245.644 93.1385 245.644H92.3685V260.024H93.9385H95.6585C97.7485 260.024 99.8685 260.024 101.969 260.024C101.969 259.274 101.969 258.514 101.969 257.784Z" fill="white"/>
<path d="M140.219 249.444V248.954C140.219 247.824 140.219 246.654 140.219 245.494C139.079 245.494 137.899 245.494 136.629 245.494C136.629 246.804 136.629 248.124 136.629 249.434H140.219V249.444Z" fill="white"/>
<path d="M148.598 258.294L148.528 258.204C147.038 256.194 145.488 254.114 143.968 252.064C143.708 251.724 143.878 251.454 143.998 251.324C145.458 249.744 146.948 248.124 148.388 246.564L148.978 245.924C149.108 245.784 149.238 245.644 149.368 245.504H148.938C147.768 245.504 146.548 245.504 145.358 245.504C145.298 245.504 145.298 245.504 145.258 245.554C144.058 246.934 142.828 248.344 141.648 249.694L141.168 250.244C141.118 250.304 141.058 250.364 141.008 250.414C140.988 250.434 140.968 250.464 140.938 250.484C140.828 250.604 140.658 250.634 140.518 250.584H136.648C136.648 252.794 136.648 254.994 136.648 257.154V260.004H140.228V259.474C140.228 258.654 140.228 257.834 140.228 257.024H138.888L140.308 255.404C140.308 255.404 140.338 255.364 140.358 255.344C140.528 255.144 140.688 254.964 140.868 254.764C140.928 254.704 140.988 254.634 141.048 254.564C141.128 254.484 141.238 254.434 141.348 254.434C141.458 254.434 141.568 254.494 141.638 254.584C141.658 254.604 141.668 254.624 141.678 254.634C141.708 254.674 141.738 254.704 141.758 254.744C142.438 255.694 143.118 256.634 143.798 257.584L144.178 258.114C144.278 258.254 144.388 258.404 144.488 258.544C144.828 259.024 145.178 259.514 145.538 259.994C146.748 259.994 147.988 259.994 149.178 259.994H149.868C149.448 259.424 149.028 258.864 148.608 258.294" fill="white"/>
<path d="M179.659 245.544C177.169 245.544 174.779 245.544 172.439 245.544C171.289 245.544 168.119 245.544 166.989 245.544C166.989 246.654 166.989 247.654 166.989 248.584C167.859 248.584 170.289 248.584 171.539 248.584V260.074H175.109V249.694L173.589 248.584H176.599C177.599 248.584 178.639 248.584 179.659 248.584C179.659 247.504 179.659 246.514 179.659 245.544Z" fill="white"/>
<path d="M186.869 245.504H183.289V248.014H186.869V245.504Z" fill="white"/>
<path d="M183.289 255.394V260.004C184.199 260.004 185.119 260.004 186.009 260.004H186.869V249.404H183.289V255.394Z" fill="white"/>
<path d="M186.869 245.504H183.289V248.014H186.869V245.504Z" fill="white"/>
<path d="M183.289 255.394V260.004C184.199 260.004 185.119 260.004 186.009 260.004H186.869V249.404H183.289V255.394Z" fill="white"/>
<path d="M186.869 245.504H183.289V248.014H186.869V245.504Z" fill="white"/>
<path d="M183.289 255.394V260.004C184.199 260.004 185.119 260.004 186.009 260.004H186.869V249.404H183.289V255.394Z" fill="white"/>
<path d="M131.478 245.554C130.598 245.294 129.719 245.174 128.859 245.174C128.089 245.174 127.339 245.274 126.609 245.474C124.309 246.114 122.678 247.544 121.768 249.714C120.998 251.554 120.918 253.494 121.528 255.504C122.278 257.964 123.918 259.574 126.408 260.274C127.758 260.654 129.159 260.694 130.569 260.394C131.969 260.094 133.089 259.484 133.999 258.504C134.039 258.464 134.079 258.414 134.119 258.364L131.698 256.264C131.698 256.264 131.649 256.314 131.619 256.334C130.919 256.964 130.059 257.284 128.989 257.314C128.939 257.314 128.899 257.314 128.859 257.314C127.249 257.314 125.858 256.354 125.288 254.854C124.948 253.954 124.858 252.974 125.018 251.944C125.158 251.074 125.488 250.324 126.028 249.704C126.668 248.964 127.598 248.514 128.648 248.454C129.738 248.384 130.838 248.744 131.588 249.414C131.648 249.464 131.699 249.514 131.759 249.564L134.268 247.384C133.608 246.574 132.539 245.854 131.489 245.554" fill="white"/>
<path d="M114.498 245.904C113.408 245.434 112.278 245.204 111.118 245.204C110.438 245.204 109.758 245.284 109.058 245.444C106.848 245.954 105.198 247.204 104.158 249.164C103.188 250.984 102.988 253.004 103.548 255.174C103.998 256.904 104.948 258.274 106.388 259.254C107.468 259.984 108.698 260.404 110.148 260.524C111.958 260.674 113.488 260.374 114.848 259.614C117.948 257.874 118.688 255.234 118.748 253.324C118.748 251.844 118.588 250.844 118.218 249.884C117.508 248.014 116.248 246.684 114.478 245.914M114.158 255.744C113.428 256.774 112.358 257.294 110.998 257.294C110.978 257.294 110.948 257.294 110.918 257.294C108.898 257.264 107.428 256.004 107.098 253.994C106.918 252.914 106.989 251.944 107.319 251.044C107.909 249.414 109.298 248.464 111.028 248.504C113.028 248.544 114.498 249.794 114.848 251.754C114.898 252.014 114.928 252.264 114.948 252.514C114.958 252.624 114.978 252.734 114.988 252.844C114.988 252.864 114.988 252.884 114.988 252.904C114.958 254.084 114.688 254.984 114.148 255.744" fill="white"/>
<path d="M90.1485 255.524C90.0585 254.474 89.6485 253.664 88.8885 253.064C88.7285 252.934 88.5385 252.814 88.3485 252.694C88.2585 252.634 88.1585 252.574 88.0585 252.504C87.9585 252.434 87.8985 252.334 87.8885 252.214C87.8885 252.094 87.9285 251.984 88.0085 251.894L88.0585 251.844C88.0585 251.844 88.1285 251.774 88.1685 251.744C88.8985 251.094 89.2585 250.314 89.2585 249.384C89.2585 247.934 88.6685 246.914 87.4385 246.254C86.6585 245.834 85.7485 245.614 84.7485 245.604C83.3485 245.584 81.9285 245.584 80.5585 245.574C79.8785 245.574 79.1785 245.574 78.4785 245.574V248.044H82.4485C82.4485 248.044 82.5185 248.044 82.5485 248.044C82.6585 248.044 82.7785 248.044 82.8885 248.044C82.9685 248.044 83.0485 248.044 83.1285 248.044C83.5585 248.044 84.0085 248.044 84.4485 248.104C85.0685 248.184 85.5585 248.504 85.8385 248.994C86.1185 249.494 86.1385 250.124 85.8785 250.724C85.7085 251.124 85.3085 251.624 84.4285 251.684C84.2085 251.704 83.9885 251.694 83.7785 251.684C83.7185 251.684 83.6685 251.684 83.6085 251.684C83.5785 251.684 83.5385 251.694 83.5085 251.694H83.2485C83.0385 251.694 82.8285 251.694 82.6285 251.694H82.5985C82.5085 251.694 82.3285 251.684 82.1985 251.544C82.0885 251.444 82.0385 251.294 82.0385 251.124C82.0385 250.544 82.0385 249.964 82.0385 249.394H78.4885V252.984C78.4885 255.364 78.4885 257.754 78.4885 260.134H78.7585C79.2485 260.134 79.7385 260.134 80.2285 260.134C81.9285 260.134 83.6785 260.134 85.3985 260.124C86.2985 260.124 87.1585 259.914 87.9485 259.514C88.8785 259.054 89.4985 258.404 89.8585 257.544C90.1085 256.934 90.1985 256.274 90.1385 255.514M86.8085 255.924C86.7685 256.494 86.5885 256.944 86.2585 257.244C85.9285 257.554 85.4685 257.714 84.8585 257.734C84.5385 257.744 84.2185 257.754 83.8985 257.754C83.7085 257.754 83.5285 257.754 83.3385 257.754H80.2285L82.0285 256.384C82.0285 255.814 82.0285 255.234 82.0285 254.674V254.304C82.0285 254.184 82.0785 254.114 82.0985 254.084C82.1685 253.964 82.2985 253.884 82.4385 253.884H83.0585C83.6585 253.884 84.2885 253.884 84.8985 253.884C85.0785 253.884 85.2485 253.934 85.3985 253.964C86.3385 254.214 86.8585 254.944 86.7985 255.914" fill="white"/>
<path d="M156.808 255.074C156.808 255.024 156.808 254.964 156.818 254.904L158.648 248.764C158.698 248.594 158.848 248.484 159.018 248.484H162.458C162.128 247.534 161.778 246.544 161.428 245.554C159.878 245.554 158.338 245.554 156.848 245.554C156.618 246.254 156.378 246.954 156.138 247.644C156.058 247.884 155.978 248.124 155.898 248.364L153.508 255.384C153.048 256.734 152.588 258.084 152.128 259.424C152.048 259.664 151.968 259.894 151.888 260.134H153.158C153.888 260.134 154.628 260.134 155.368 260.134L156.798 255.064L156.808 255.074Z" fill="white"/>
<path d="M166.239 259.214C165.939 258.364 165.639 257.504 165.339 256.654C164.899 255.394 164.449 254.144 164.009 252.884C163.689 251.984 163.339 250.964 162.949 249.874H159.789L161.209 254.414L162.729 255.414H157.949L157.319 257.944C158.779 257.944 160.159 257.944 161.519 257.944C161.869 257.944 162.109 258.114 162.209 258.464C162.289 258.754 162.389 259.044 162.479 259.334C162.569 259.604 162.649 259.884 162.739 260.154C163.799 260.154 164.879 260.154 165.919 260.154H166.559C166.449 259.844 166.339 259.534 166.239 259.224" fill="white"/>
<path d="M201.029 257.314H199.909C198.319 257.314 196.679 257.314 195.059 257.314C194.979 257.314 194.759 257.314 194.599 257.154C194.439 256.994 194.439 256.764 194.439 256.694C194.439 256.214 194.449 255.724 194.439 255.224L192.689 254.144H194.979C194.979 254.144 195.029 254.144 195.049 254.144C196.429 254.144 197.838 254.144 199.198 254.144H200.219V251.454H194.839C194.629 251.454 194.448 251.284 194.448 251.064V249.824H190.859V260.104H201.009V257.314H201.029Z" fill="white"/>
<path d="M194.778 248.454C194.778 248.454 194.828 248.454 194.858 248.454H196.408C197.878 248.454 199.408 248.454 200.908 248.454C200.908 247.724 200.908 246.984 200.908 246.264C200.908 246.054 200.908 245.854 200.908 245.654H190.888V248.454H194.788H194.778Z" fill="white"/>
<path d="M101.969 257.784V257.014H100.719C99.6985 257.014 98.6685 257.014 97.6485 257.014H96.5585C96.5385 257.014 96.5285 257.014 96.5085 257.014C96.4685 257.014 96.4285 257.014 96.3785 257.014H94.1885L95.9185 255.894V254.964C95.9185 251.914 95.9185 248.754 95.9185 245.644C94.9885 245.644 94.0485 245.644 93.1385 245.644H92.3685V260.024H93.9385H95.6585C97.7485 260.024 99.8685 260.024 101.969 260.024C101.969 259.274 101.969 258.514 101.969 257.784Z" fill="white"/>
<path d="M140.219 249.444V248.954C140.219 247.824 140.219 246.654 140.219 245.494C139.079 245.494 137.899 245.494 136.629 245.494C136.629 246.804 136.629 248.124 136.629 249.434H140.219V249.444Z" fill="white"/>
<path d="M148.598 258.294L148.528 258.204C147.038 256.194 145.488 254.114 143.968 252.064C143.708 251.724 143.878 251.454 143.998 251.324C145.458 249.744 146.948 248.124 148.388 246.564L148.978 245.924C149.108 245.784 149.238 245.644 149.368 245.504H148.938C147.768 245.504 146.548 245.504 145.358 245.504C145.298 245.504 145.298 245.504 145.258 245.554C144.058 246.934 142.828 248.344 141.648 249.694L141.168 250.244C141.118 250.304 141.058 250.364 141.008 250.414C140.988 250.434 140.968 250.464 140.938 250.484C140.828 250.604 140.658 250.634 140.518 250.584H136.648C136.648 252.794 136.648 254.994 136.648 257.154V260.004H140.228V259.474C140.228 258.654 140.228 257.834 140.228 257.024H138.888L140.308 255.404C140.308 255.404 140.338 255.364 140.358 255.344C140.528 255.144 140.688 254.964 140.868 254.764C140.928 254.704 140.988 254.634 141.048 254.564C141.128 254.484 141.238 254.434 141.348 254.434C141.458 254.434 141.568 254.494 141.638 254.584C141.658 254.604 141.668 254.624 141.678 254.634C141.708 254.674 141.738 254.704 141.758 254.744C142.438 255.694 143.118 256.634 143.798 257.584L144.178 258.114C144.278 258.254 144.388 258.404 144.488 258.544C144.828 259.024 145.178 259.514 145.538 259.994C146.748 259.994 147.988 259.994 149.178 259.994H149.868C149.448 259.424 149.028 258.864 148.608 258.294" fill="white"/>
<path d="M179.659 245.544C177.169 245.544 174.779 245.544 172.439 245.544C171.289 245.544 168.119 245.544 166.989 245.544C166.989 246.654 166.989 247.654 166.989 248.584C167.859 248.584 170.289 248.584 171.539 248.584V260.074H175.109V249.694L173.589 248.584H176.599C177.599 248.584 178.639 248.584 179.659 248.584C179.659 247.504 179.659 246.514 179.659 245.544Z" fill="white"/>
<path d="M186.869 245.504H183.289V248.014H186.869V245.504Z" fill="white"/>
<path d="M183.289 255.394V260.004C184.199 260.004 185.119 260.004 186.009 260.004H186.869V249.404H183.289V255.394Z" fill="white"/>
<path d="M186.869 245.504H183.289V248.014H186.869V245.504Z" fill="white"/>
<path d="M183.289 255.394V260.004C184.199 260.004 185.119 260.004 186.009 260.004H186.869V249.404H183.289V255.394Z" fill="white"/>
<path d="M182.089 64.8638H165.839C174.749 64.8638 182.819 61.2438 188.669 55.4138C194.659 49.4138 198.319 41.0738 198.109 31.8738C197.739 14.2138 182.859 0.303772 165.199 0.303772H86.5586V26.4538C88.2086 25.5838 90.2686 25.5738 92.1686 26.8938C93.4586 27.7838 94.5486 29.0338 95.6786 30.1038C97.3386 31.6838 98.9986 33.2538 100.659 34.8138V14.4038H165.359C175.359 14.4038 184.009 22.5838 184.019 32.5738C184.019 37.4238 182.129 42.0138 178.689 45.4638C175.269 48.8838 170.699 50.7838 165.829 50.7838H129.559C126.239 50.7838 123.179 51.9338 120.769 53.8638C120.899 53.9838 121.039 54.1138 121.169 54.2438C123.049 56.0138 124.919 57.7938 126.799 59.5738C129.099 61.7538 129.949 64.4138 128.539 67.0838C128.399 67.5138 128.129 67.9438 127.719 68.3338C127.509 68.6038 127.279 68.8038 127.049 68.9638C126.999 69.0038 126.959 69.0538 126.909 69.0938C124.679 71.2038 122.449 73.3238 120.209 75.4338C122.699 77.6338 125.969 78.9838 129.549 78.9838H182.059C194.239 78.9838 204.779 88.9338 204.769 101.114C204.759 107.234 202.299 112.954 197.849 117.174C193.639 121.164 187.959 123.224 182.169 123.224H100.639V93.9538C99.0185 95.4938 97.3886 97.0238 95.7686 98.5638C94.7786 99.5038 93.8186 100.504 92.7886 101.394C90.7886 103.104 88.4086 103.244 86.5486 102.284V137.314H182.649C192.639 137.314 201.709 133.264 208.259 126.704C214.809 120.144 219.109 110.524 218.849 100.144C218.349 80.4238 201.789 64.8838 182.069 64.8838" fill="white"/>
<path d="M125.609 66.0238L90.4186 99.3338C88.9686 100.714 86.5686 99.6838 86.5686 97.6738V31.0438C86.5686 29.0438 88.9686 28.0138 90.4186 29.3838L125.609 62.6938C126.559 63.5938 126.559 65.1038 125.609 66.0038" fill="#37C2D7"/>
</svg>
